<?xml version="1.0" encoding="UTF-8" standalone="no"?>
<svg
   xmlns:dc="http://purl.org/dc/elements/1.1/"
   xmlns:cc="http://creativecommons.org/ns#"
   xmlns:rdf="http://www.w3.org/1999/02/22-rdf-syntax-ns#"
   xmlns:svg="http://www.w3.org/2000/svg"
   xmlns="http://www.w3.org/2000/svg"
   xmlns:sodipodi="http://sodipodi.sourceforge.net/DTD/sodipodi-0.dtd"
   xmlns:inkscape="http://www.inkscape.org/namespaces/inkscape"
   width="11px"
   height="12px"
   viewBox="0 0 11 12"
   id="svg2"
   version="1.1"
   inkscape:version="0.91 r13725"
   sodipodi:docname="arrow-up-stroke.svg">
  <metadata
     id="metadata10">
    <rdf:RDF>
      <cc:Work
         rdf:about="">
        <dc:format>image/svg+xml</dc:format>
        <dc:type
           rdf:resource="http://purl.org/dc/dcmitype/StillImage" />
      </cc:Work>
    </rdf:RDF>
  </metadata>
  <defs
     id="defs8" />
  <sodipodi:namedview
     pagecolor="#ffffff"
     bordercolor="#666666"
     borderopacity="1"
     objecttolerance="10"
     gridtolerance="10"
     guidetolerance="10"
     inkscape:pageopacity="0"
     inkscape:pageshadow="2"
     inkscape:window-width="640"
     inkscape:window-height="480"
     id="namedview6"
     showgrid="false"
     inkscape:zoom="19.666667"
     inkscape:cx="5.5"
     inkscape:cy="6"
     inkscape:window-x="75"
     inkscape:window-y="34"
     inkscape:window-maximized="0"
     inkscape:current-layer="svg2" />
  <path
     fillRule="evenodd"
     d="m 4.94,12 c 0,0 0,-9.58 0,-9.58 0,0 -4.1,4.37 -4.1,4.37 0,0 -0.83,-0.87 -0.83,-0.87 0,0 5.52,-5.91 5.52,-5.91 0,0 0.06,0.07 0.06,0.07 0,0 0,-0.07 0,-0.07 0,0 5.41,5.73 5.41,5.73 0,0 -0.84,0.93 -0.84,0.93 0,0 -3.97,-4.25 -3.97,-4.25 0,0 0,9.58 0,9.58 0,0 0.06,0 0.06,0"
     id="path4"
     inkscape:connector-curvature="0"
     style="fill:#000000" />
</svg>
