<?xml version="1.0" encoding="utf-8"?>
<!-- Generator: Adobe Illustrator 21.1.0, SVG Export Plug-In . SVG Version: 6.00 Build 0)  -->
<svg version="1.1" id="Facebook" xmlns="http://www.w3.org/2000/svg" xmlns:xlink="http://www.w3.org/1999/xlink" x="0px" y="0px"
	 viewBox="0 0 50 50" style="enable-background:new 0 0 50 50;" xml:space="preserve">
<style type="text/css">
	.st0{opacity:0.1;enable-background:new    ;}
	.st1{fill:#FFFFFF;}
</style>
<g id="facebook-2" class="st0">
	<path class="st1" d="M25,50C11.2,50,0,38.8,0,25S11.2,0,25,0s25,11.2,25,25S38.8,50,25,50z M25,1C11.8,1,1,11.8,1,25s10.8,24,24,24
		s24-10.8,24-24S38.2,1,25,1z"/>
</g>
<path id="facebook_copie" class="st1" d="M29.1,24.1h-3.3v11.5h-4.9V24.1h-2.3v-4.1h2.3v-2.6c0-1.9,0.9-4.8,4.9-4.8l3.6,0v3.9h-2.6
	c-0.5,0-1,0.4-1,0.9c0,0.1,0,0.1,0,0.2v2.4h3.7L29.1,24.1z"/>
</svg>
