<?xml version="1.0" encoding="utf-8"?>
<!-- Generator: Adobe Illustrator 21.1.0, SVG Export Plug-In . SVG Version: 6.00 Build 0)  -->
<svg version="1.1" id="instagram" xmlns="http://www.w3.org/2000/svg" xmlns:xlink="http://www.w3.org/1999/xlink" x="0px" y="0px"
	 viewBox="0 0 50 50" style="enable-background:new 0 0 50 50;" xml:space="preserve">
<style type="text/css">
	.st0{opacity:0.1;enable-background:new    ;}
	.st1{fill:#FFFFFF;}
	.st2{fill:#E9E8EC;}
</style>
<g id="contour" class="st0">
	<path class="st1" d="M25,50C11.2,50,0,38.8,0,25S11.2,0,25,0s25,11.2,25,25S38.8,50,25,50z M25,1C11.8,1,1,11.8,1,25s10.8,24,24,24
		s24-10.8,24-24S38.2,1,25,1z"/>
</g>
<path id="instagragm" class="st2" d="M32.3,16.8c-0.9,0-1.6,0.7-1.6,1.6c0,0.9,0.7,1.6,1.6,1.6c0.9,0,1.6-0.7,1.6-1.6
	C33.9,17.5,33.2,16.8,32.3,16.8C32.3,16.8,32.3,16.8,32.3,16.8z M36.3,14.5c-1.5-1.4-3.5-2.2-5.5-2.2H20c-4-0.2-7.4,2.8-7.7,6.8
	c0,0.3,0,0.5,0,0.8v10.8c-0.1,2.1,0.7,4.1,2.2,5.6c1.5,1.4,3.5,2.1,5.5,2.1h10.7c2,0.1,4-0.7,5.5-2.1c1.4-1.5,2.2-3.5,2.2-5.6V20
	C38.5,18,37.7,16,36.3,14.5z M36,30.8c0.1,1.4-0.5,2.8-1.5,3.8c-1,0.9-2.4,1.4-3.8,1.4H20c-1.4,0-2.8-0.4-3.8-1.4
	c-1-1.1-1.5-2.5-1.5-3.9V19.9c-0.3-2.6,1.7-4.9,4.3-5.2c0.3,0,0.6,0,0.9,0h10.8c1.5-0.1,2.9,0.5,3.9,1.5c0.9,1,1.4,2.4,1.4,3.8
	L36,30.8L36,30.8z M25.3,18.6c-3.7,0.1-6.6,3.1-6.5,6.8c0.1,3.7,3.1,6.6,6.8,6.5c3.6-0.1,6.5-3,6.5-6.7C32,21.6,29,18.6,25.3,18.6z
	 M25.3,29.6c-2.4,0-4.3-2-4.3-4.3c0-2.4,2-4.3,4.3-4.3c2.4,0,4.3,1.9,4.3,4.3C29.6,27.7,27.7,29.6,25.3,29.6
	C25.3,29.6,25.3,29.6,25.3,29.6z"/>
</svg>
