<?xml version="1.0" encoding="utf-8"?>
<!-- Generator: Adobe Illustrator 21.1.0, SVG Export Plug-In . SVG Version: 6.00 Build 0)  -->
<svg version="1.1" id="IN" xmlns="http://www.w3.org/2000/svg" xmlns:xlink="http://www.w3.org/1999/xlink" x="0px" y="0px"
	 viewBox="0 0 50 50" style="enable-background:new 0 0 50 50;" xml:space="preserve">
<style type="text/css">
	.st0{opacity:0.1;enable-background:new    ;}
	.st1{fill:#FFFFFF;}
</style>
<g id="facebook" class="st0">
	<path class="st1" d="M25,50C11.2,50,0,38.8,0,25S11.2,0,25,0s25,11.2,25,25S38.8,50,25,50z M25,1C11.8,1,1,11.8,1,25s10.8,24,24,24
		s24-10.8,24-24S38.2,1,25,1z"/>
</g>
<path id="in-2" class="st1" d="M14.4,21.4h4.6v14.7h-4.6V21.4z M16.7,14.1c1.5,0,2.7,1.2,2.7,2.6c0,1.5-1.2,2.7-2.6,2.7
	c-1.5,0-2.7-1.2-2.7-2.6c0,0,0,0,0,0C14,15.3,15.2,14.1,16.7,14.1 M21.8,21.4h4.4v2h0.1c0.9-1.5,2.6-2.4,4.3-2.4c4.6,0,5.5,3,5.5,7
	v8.1h-4.6V29c0-1.7,0-3.9-2.4-3.9c-2.4,0-2.7,1.9-2.7,3.8v7.3h-4.6L21.8,21.4L21.8,21.4L21.8,21.4z"/>
</svg>
