<svg xmlns="http://www.w3.org/2000/svg" version="1.0" viewBox="114.08 114.08 598.12 598.45"><g style="fill:#fff"><path d="M3860 7113c-613-65-1139-278-1605-650-142-113-367-340-472-473-367-474-574-987-634-1578-17-167-6-573 20-732 106-655 384-1204 845-1666 148-148 268-248 426-356 727-497 1629-649 2483-417 374 101 775 306 1087 555 109 87 367 345 454 454 213 267 395 599 503 915 107 315 154 611 155 965 0 398-65 745-209 1105-410 1029-1344 1744-2443 1870-123 14-507 19-610 8zm580-204c52-6 153-22 223-35 856-166 1585-724 1972-1509 117-237 172-393 229-645 80-358 82-798 5-1160-129-602-451-1150-908-1542-615-528-1383-761-2186-662-307 38-580 121-880 269-450 221-823 550-1100 970-559 845-613 1938-140 2831 355 674 975 1181 1696 1388 352 102 720 134 1089 95z" style="opacity:.1;enable-background:new" transform="matrix(.1 0 0 -.1 0 826)"/><path d="M262 262.5c0 .2 22.8 33 50.7 72.7 27.9 39.8 54.2 77.3 58.5 83.5l7.8 11.2-57.2 65.2c-31.5 35.9-57.9 66-58.6 67-1.3 1.8-.7 1.9 13 1.9l14.3-.1 25.1-28.7c57.2-65.5 75.7-86.3 76.5-86 .4.2 13.6 18.5 29.2 40.8 15.6 22.3 33.7 48.1 40.3 57.3l11.9 16.9 45.4-.1c25-.1 45.5-.2 45.6-.4.1-.1-11.5-16.9-25.8-37.2-14.3-20.4-41.7-59.4-60.9-86.8L442.9 390l11.8-13.3c18.2-20.5 96.6-109.8 98.6-112.4l1.8-2.3h-28.6l-19.1 21.7C453 345.8 430.7 371 430.1 371c-.4 0-4.8-6-9.9-13.3-5-7.2-22.1-31.7-38-54.2l-28.7-41-45.8-.3c-25.1-.1-45.7 0-45.7.3zM378.4 338c21.4 30 63.2 88.5 92.8 130l53.9 75.5-18.7.3c-16.9.2-19 .1-20.5-1.5-1.4-1.5-182.1-254.5-184.3-258.1-.6-1 3.4-1.2 18.6-1l19.3.3 38.9 54.5z"/></g></svg>
