<?xml version="1.0" encoding="utf-8"?>
<!-- Generator: Adobe Illustrator 21.1.0, SVG Export Plug-In . SVG Version: 6.00 Build 0)  -->
<svg version="1.1" id="youtube" xmlns="http://www.w3.org/2000/svg" xmlns:xlink="http://www.w3.org/1999/xlink" x="0px" y="0px"
	 viewBox="0 0 50 50" style="enable-background:new 0 0 50 50;" xml:space="preserve">
<style type="text/css">
	.st0{opacity:0.1;enable-background:new    ;}
	.st1{fill:#FFFFFF;}
</style>
<g id="contour" class="st0">
	<path class="st1" d="M25,50C11.2,50,0,38.8,0,25S11.2,0,25,0s25,11.2,25,25S38.8,50,25,50z M25,1C11.8,1,1,11.8,1,25s10.8,24,24,24
		s24-10.8,24-24S38.2,1,25,1z"/>
</g>
<path id="Forme_2" class="st1" d="M33.5,24H16.6c-2.7,0-4.9,2.2-4.8,4.9v3.9c0,2.7,2.2,4.9,4.8,4.9c0,0,0,0,0,0h16.8
	c2.7,0,4.9-2.2,4.8-4.9c0,0,0,0,0,0v-3.9C38.3,26.2,36.1,24,33.5,24z M20.2,27h-1.6v7.8h-1.5V27h-1.6v-1.3h4.7L20.2,27L20.2,27z
	 M24.6,34.8h-1.3v-0.7c-0.2,0.3-0.5,0.5-0.8,0.6c-0.2,0.1-0.5,0.2-0.8,0.2c-0.3,0-0.5-0.1-0.7-0.3c-0.2-0.3-0.3-0.6-0.2-0.9v-5.6
	h1.3v5.2c0,0.1,0,0.2,0.1,0.3c0.1,0.1,0.2,0.1,0.3,0.1c0.1,0,0.3-0.1,0.4-0.1c0.2-0.1,0.3-0.2,0.4-0.4v-5.1h1.3V34.8L24.6,34.8z
	 M29.4,33.5c0,0.4-0.1,0.8-0.3,1.1c-0.2,0.3-0.6,0.4-0.9,0.4c-0.2,0-0.5,0-0.7-0.1c-0.2-0.1-0.4-0.3-0.6-0.5v0.5h-1.4v-9.1h1.4v2.9
	c0.2-0.2,0.4-0.3,0.6-0.5c0.2-0.1,0.4-0.2,0.6-0.2c0.4,0,0.7,0.1,1,0.4c0.3,0.4,0.4,0.8,0.3,1.3L29.4,33.5L29.4,33.5L29.4,33.5z
	 M34.1,31.6h-2.6v1.3c0,0.3,0,0.5,0.1,0.7c0.1,0.1,0.3,0.2,0.5,0.2c0.2,0,0.3,0,0.5-0.2c0.1-0.2,0.2-0.5,0.1-0.8v-0.3h1.4v0.3
	c0,0.6-0.1,1.1-0.5,1.6c-0.4,0.4-0.9,0.6-1.5,0.5c-0.5,0-1.1-0.2-1.4-0.6c-0.4-0.4-0.5-1-0.5-1.5v-3c0-0.5,0.2-1.1,0.6-1.4
	c0.4-0.4,0.9-0.6,1.5-0.6c0.5,0,1,0.2,1.4,0.5c0.4,0.4,0.5,0.9,0.5,1.5L34.1,31.6L34.1,31.6z M32.1,29.1c-0.2,0-0.3,0.1-0.5,0.2
	c-0.1,0.2-0.2,0.4-0.1,0.6v0.7h1.2v-0.7c0-0.2,0-0.4-0.1-0.6C32.5,29.2,32.3,29.1,32.1,29.1L32.1,29.1z M27.5,29.1
	c-0.1,0-0.2,0-0.3,0.1c-0.1,0.1-0.2,0.1-0.3,0.2v4.2c0.1,0.1,0.2,0.2,0.3,0.2c0.1,0,0.2,0.1,0.3,0.1c0.1,0,0.3,0,0.4-0.1
	c0.1-0.1,0.1-0.3,0.1-0.5v-3.5c0-0.2,0-0.4-0.1-0.5C27.8,29.2,27.7,29.1,27.5,29.1L27.5,29.1z M18.8,21.7h1.7v-4.2l2-5.9h-1.7
	l-1.1,4h-0.1l-1.1-4h-1.7l2,6.1V21.7L18.8,21.7z M24.8,21.9c0.6,0,1.2-0.2,1.6-0.5c0.4-0.4,0.6-0.9,0.6-1.5V16c0-0.5-0.2-1-0.6-1.4
	c-0.4-0.4-1-0.6-1.5-0.5c-0.6,0-1.2,0.1-1.6,0.5c-0.4,0.3-0.6,0.8-0.6,1.4v3.8c0,0.6,0.2,1.1,0.6,1.5C23.6,21.7,24.2,21.9,24.8,21.9
	L24.8,21.9z M24.2,15.9c0-0.1,0.1-0.3,0.2-0.4c0.1-0.1,0.3-0.2,0.5-0.1c0.2,0,0.3,0,0.5,0.1c0.1,0.1,0.2,0.2,0.2,0.4v4
	c0,0.2-0.1,0.3-0.2,0.5c-0.1,0.1-0.3,0.2-0.5,0.2c-0.2,0-0.3,0-0.5-0.2c-0.1-0.1-0.2-0.3-0.2-0.5V15.9L24.2,15.9z M29.3,21.8
	c0.3,0,0.6-0.1,0.9-0.2c0.3-0.2,0.6-0.4,0.9-0.7v0.8h1.5v-7.4H31v5.6c-0.1,0.2-0.3,0.3-0.5,0.4c-0.1,0.1-0.3,0.1-0.4,0.2
	c-0.1,0-0.2,0-0.3-0.1c-0.1-0.1-0.1-0.2-0.1-0.4v-5.7h-1.5v6.2c0,0.4,0.1,0.7,0.3,1C28.7,21.7,29,21.8,29.3,21.8L29.3,21.8z"/>
</svg>
